<svg xmlns="http://www.w3.org/2000/svg" xmlns:xlink="http://www.w3.org/1999/xlink" xmlns:fi="http://pattern.flaticon.com/" x="0" y="0" width="700" height="350" viewBox="0 0 700 350"><rect x="0px" y="0px" width="100%" height="100%" opacity="1" fill="#0c2238"/><defs><g transform="matrix(0.125 0 0 0.125 56 109)" id="L1_3"><path d="m240 0c-132.546875 0-240 107.453125-240 240s107.453125 240 240 240 240-107.453125 240-240c-.148438-132.484375-107.515625-239.851562-240-240zm0 464c-123.710938 0-224-100.289062-224-224s100.289062-224 224-224 224 100.289062 224 224c-.140625 123.652344-100.347656 223.859375-224 224zm0 0" fill="#253b54"/><path d="m240 40c-110.457031 0-200 89.542969-200 200s89.542969 200 200 200 200-89.542969 200-200c-.125-110.40625-89.59375-199.875-200-200zm0 384c-101.621094 0-184-82.378906-184-184s82.378906-184 184-184 184 82.378906 184 184c-.113281 101.574219-82.425781 183.886719-184 184zm0 0" fill="#253b54"/><path d="m357.824219 122.175781c-2.546875-2.539062-6.472657-3.066406-9.601563-1.289062l-142.824218 81.511719c-.085938.058593-.125.152343-.214844.203124-.914063.785157-1.769532 1.640626-2.558594 2.558594-.050781.085938-.144531.128906-.199219.214844l-81.539062 142.824219c-1.785157 3.132812-1.253907 7.070312 1.292969 9.621093 2.550781 2.546876 6.488281 3.078126 9.621093 1.292969l142.800781-81.511719c.085938-.058593.125-.152343.214844-.203124.914063-.785157 1.769532-1.640626 2.558594-2.558594.050781-.085938.144531-.128906.199219-.214844l81.539062-142.800781c1.800781-3.136719 1.273438-7.09375-1.289062-9.648438zm-208.511719 208.511719 61.808594-108.246094 46.480468 46.4375zm119.566406-73.085938-46.398437-46.402343 108.246093-61.808594zm0 0" fill="#253b54"/><path d="m112 232h-32c-4.417969 0-8 3.582031-8 8s3.582031 8 8 8h32c4.417969 0 8-3.582031 8-8s-3.582031-8-8-8zm0 0" fill="#253b54"/><path d="m400 232h-32c-4.417969 0-8 3.582031-8 8s3.582031 8 8 8h32c4.417969 0 8-3.582031 8-8s-3.582031-8-8-8zm0 0" fill="#253b54"/><path d="m240 120c4.417969 0 8-3.582031 8-8v-32c0-4.417969-3.582031-8-8-8s-8 3.582031-8 8v32c0 4.417969 3.582031 8 8 8zm0 0" fill="#253b54"/><path d="m240 360c-4.417969 0-8 3.582031-8 8v32c0 4.417969 3.582031 8 8 8s8-3.582031 8-8v-32c0-4.417969-3.582031-8-8-8zm0 0" fill="#253b54"/></g><g transform="matrix(0.15808776021003723 0 0 0.15808776021003723 51.794234573841095 -38.205765426158905)" id="L1_10"><path d="M112.68,260c-8.16,0-15.824,4.344-20,11.32l-12.04,20.072l-0.64-1.28v-24.696l26.008-10.408     C114.504,251.616,120,243.512,120,234.36c0-7.152-3.472-13.896-9.264-18.072c-5.808-4.168-13.312-5.288-20.08-3.008l-2.832,0.952     l3.232-6.464C94.288,201.296,96,194.056,96,186.832C96,174.24,85.76,164,73.168,164c-8.704,0-16.52,4.832-20.424,12.624     l-19.896,39.8L16.16,298.432L16,404l6.28,32H0v56h120v-56H96v-53.576l14.656-21.984l21.792-57.504     c2.36-6.296,3.552-12.896,3.552-19.616C136,270.464,125.536,260,112.68,260z M95.768,228.44c1.92-0.64,3.976-0.336,5.632,0.848     c1.656,1.184,2.6,3.032,2.6,5.072c0,2.568-1.536,4.832-3.92,5.792L80,248.184v-14.44L95.768,228.44z M104,452v24H16v-24H104z      M117.464,297.312L96.84,352.328L80,377.576V436H38.56L32,403.208V300.792l15.632-78.168l19.424-38.832     c1.16-2.344,3.504-3.792,6.112-3.792c3.76,0,6.832,3.072,6.832,6.832c0,4.752-1.128,9.52-3.256,13.792L64,226.112v67.784     l15.36,30.72l27.04-45.064c1.312-2.192,3.72-3.552,6.28-3.552c4.04,0,7.32,3.28,7.32,7.32     C120,288.12,119.152,292.832,117.464,297.312z" fill="#253b54"/><path d="M473.76,436l6.088-30.432L480,300l-16.16-81.568l-20.584-41.808C439.36,168.832,431.536,164,422.832,164     C410.24,164,400,174.24,400,186.832c0,7.216,1.712,14.464,4.944,20.944l3.224,6.448l-2.824-0.952     c-6.76-2.288-14.272-1.16-20.08,3.008c-5.792,4.184-9.264,10.928-9.264,18.08c0,9.16,5.496,17.256,13.984,20.648L416,265.416     v24.696l-0.64,1.28l-12.04-20.064c-4.176-6.984-11.84-11.328-20-11.328c-12.856,0-23.32,10.464-23.32,23.32     c0,6.72,1.192,13.32,3.552,19.616l20.952,55.872L400,382.424V436h-24v56h120v-56H473.76z M395.912,240.152     c-2.376-0.96-3.912-3.224-3.912-5.792c0-2.04,0.944-3.88,2.6-5.072c1.656-1.192,3.696-1.496,5.632-0.848L416,233.744v14.44     L395.912,240.152z M399.168,352.328l-20.624-55.016c-1.696-4.48-2.544-9.192-2.544-13.992c0-4.04,3.28-7.32,7.32-7.32     c2.56,0,4.968,1.36,6.28,3.552l27.04,45.056l15.36-30.72v-67.784l-12.744-25.48c-2.128-4.264-3.256-9.04-3.256-13.792     c0-3.76,3.072-6.832,6.832-6.832c2.6,0,4.944,1.448,6.112,3.784l19.424,38.832L464,300.792v102.424L457.44,436H416v-58.424     L399.168,352.328z M480,476h-88v-24h88V476z" fill="#253b54"/><path d="M349.112,148H368v-48h-18.888c-2.552-10.848-6.784-21.08-12.632-30.528l13.344-13.352l-33.936-33.936l-13.36,13.336     c-9.456-5.848-19.68-10.08-30.528-12.632V4h-48v18.888c-10.848,2.552-21.08,6.784-30.528,12.632L180.12,22.176l-33.936,33.936     l13.344,13.352c-5.848,9.456-10.08,19.68-12.632,30.528H128v48h18.888c2.552,10.848,6.784,21.08,12.632,30.528l-13.344,13.352     l33.936,33.936l12.256-12.256c-0.096,0.808-0.248,1.6-0.248,2.432c0,7.12,3.76,13.328,9.368,16.88     c-0.848,2.224-1.368,4.608-1.368,7.12c0,11.032,8.968,20,20,20h56c11.032,0,20-8.968,20-20c0-2.52-0.52-4.904-1.368-7.12     c5.608-3.544,9.368-9.76,9.368-16.88c0-0.736-0.136-1.44-0.216-2.152l11.976,11.976l33.936-33.936l-13.344-13.352     C342.328,169.08,346.552,158.848,349.112,148z M276.128,244h-56c-2.2,0-4-1.8-4-4s1.8-4,4-4h56c2.2,0,4,1.8,4,4     S278.328,244,276.128,244z M284.128,220h-8h-56h-8c-2.2,0-4-1.8-4-4s1.8-4,4-4h72c2.2,0,4,1.8,4,4S286.328,220,284.128,220z      M256.128,146.528c9.288-3.312,16-12.112,16-22.528c0-13.232-10.768-24-24-24s-24,10.768-24,24c0,10.416,6.712,19.216,16,22.528     V196h-16v-21.24l-3.992-2.312C202.864,162.44,192.128,143.88,192.128,124c0-30.872,25.128-56,56-56s56,25.128,56,56     c0,19.872-10.736,38.44-28.008,48.448l-3.992,2.312V196h-16V146.528z M248.128,132c-4.416,0-8-3.584-8-8s3.584-8,8-8     c4.416,0,8,3.584,8,8S252.544,132,248.128,132z M334.672,138.672c-2.216,13.2-7.264,25.4-14.992,36.248l-3.92,5.504l11.44,11.456     l-11.312,11.312l-11.456-11.456l-5.512,3.928c-1.464,1.04-3.064,2.08-4.776,3.112c-1.848-1.08-3.848-1.944-6.016-2.384v-12.6     c19.848-13.304,32-35.808,32-59.808c0-39.704-32.296-72-72-72c-39.704,0-72,32.296-72,72c0,23.992,12.152,46.496,32,59.8v12.608     c-2.216,0.448-4.256,1.336-6.144,2.456c-1.744-1.056-3.392-2.112-4.896-3.184l-5.512-3.928l-11.456,11.456l-11.312-11.312     l11.44-11.456l-3.92-5.504c-7.728-10.848-12.776-23.048-14.992-36.248L160.2,132H144v-16h16.2l1.128-6.672     c2.216-13.2,7.264-25.4,14.992-36.248l3.92-5.504L168.8,56.12l11.312-11.312l11.456,11.44l5.504-3.92     C207.92,44.6,220.12,39.552,233.32,37.336L240,36.2V20h16v16.2l6.672,1.128c13.2,2.216,25.4,7.264,36.248,14.992l5.504,3.92     L315.88,44.8l11.312,11.312l-11.44,11.456l3.92,5.504c7.728,10.848,12.776,23.048,14.992,36.248L335.8,116H352v16h-16.2     L334.672,138.672z" fill="#253b54"/><rect x="240px" y="276px" width="16px" height="16px" fill="#253b54"/><rect x="240px" y="308px" width="16px" height="16px" fill="#253b54"/><rect x="240px" y="340px" width="16px" height="16px" fill="#253b54"/><rect x="240px" y="372px" width="16px" height="16px" fill="#253b54"/></g><g transform="matrix(0.15292000770568848 0 0 0.15292000770568848 112 206.0000016800293)" id="L1_13"><path d="M74.832,334.417c-0.125-0.112-0.254-0.219-0.388-0.321c-4-3.32-8-6.88-11.68-10.56c-2.338-2.313-6.102-2.313-8.44,0    c-2.34,2.343-2.34,6.137,0,8.48c4,4,8,7.72,12.48,11.32c2.463,2.217,6.257,2.017,8.474-0.446    C77.494,340.427,77.295,336.634,74.832,334.417z" fill="#253b54"/><path d="M12.038,156.534c-3.128-1.093-6.55,0.558-7.643,3.686c-0.162,0.464-0.267,0.947-0.311,1.436    c-1.2,5.48-2.12,11.04-2.8,16.6c-0.428,3.252,1.834,6.245,5.08,6.72h0.76c3.037,0.002,5.596-2.265,5.96-5.28    c0.64-5.2,1.52-10.44,2.64-15.52C16.817,161.048,15.166,157.626,12.038,156.534z" fill="#253b54"/><path d="M45.004,302.616c-3.08-4.24-6-8.64-8.68-13.12c-1.694-2.848-5.376-3.784-8.224-2.09c-0.005,0.003-0.011,0.006-0.016,0.01    c-2.848,1.694-3.784,5.376-2.09,8.224c0.003,0.005,0.006,0.011,0.01,0.016c2.88,4.8,6,9.52,9.32,14.04    c2.047,2.606,5.819,3.058,8.425,1.011C46.228,308.759,46.777,305.224,45.004,302.616z" fill="#253b54"/><path d="M24.084,264.776c-1.92-4.84-3.68-9.84-5.16-14.88c-0.923-3.182-4.252-5.014-7.434-4.091    c-0.056,0.016-0.111,0.033-0.166,0.051c-3.149,0.962-4.934,4.283-4,7.44c1.6,5.36,3.44,10.72,5.52,16    c1.248,3.104,4.776,4.608,7.88,3.36S25.332,267.88,24.084,264.776z" fill="#253b54"/><path d="M27.664,115.396c-2.96-1.491-6.569-0.3-8.06,2.66c-2.52,5-4.84,10.16-6.88,15.4c-1.203,3.07,0.298,6.536,3.36,7.76    c3.081,1.22,6.568-0.288,7.788-3.369c0.004-0.01,0.008-0.021,0.012-0.031c1.92-4.88,4-9.72,6.44-14.36    C31.815,120.496,30.624,116.888,27.664,115.396z" fill="#253b54"/><path d="M13.286,223.033c-0.001-0.005-0.001-0.011-0.002-0.016c-0.64-5.2-1.08-10.48-1.28-15.68    c-0.121-3.314-2.906-5.901-6.22-5.78c-3.314,0.121-5.901,2.906-5.78,6.22c0,5.6,0.64,11.24,1.36,16.8    c0.41,2.908,2.865,5.091,5.8,5.16h0.92C11.372,229.322,13.701,226.32,13.286,223.033z" fill="#253b54"/><path d="M172.464,22.876c-0.32-3.314-3.266-5.74-6.58-5.42c-5.56,0.56-11.16,1.36-16.68,2.44c-3.314,0.309-5.749,3.246-5.44,6.56    c0.309,3.314,3.246,5.749,6.56,5.44l-0.04-0.16h1.16c5.16-1,10.4-1.76,15.6-2.28C170.358,29.136,172.784,26.19,172.464,22.876z" fill="#253b54"/><path d="M53.724,79.096c-2.496-2.209-6.311-1.976-8.52,0.52c-3.68,4.2-7.2,8.64-10.48,13.2c-1.944,2.683-1.345,6.435,1.339,8.379    c1.019,0.738,2.243,1.137,3.501,1.141v0.08c1.931,0.007,3.747-0.916,4.88-2.48c3.08-4.24,6.36-8.4,9.8-12.32    C56.453,85.12,56.22,81.306,53.724,79.096z" fill="#253b54"/><path d="M212.004,18.456c-5.52-0.84-11.16-1.44-16.76-1.76c-3.314-0.199-6.161,2.326-6.36,5.64    c-0.199,3.314,2.326,6.161,5.64,6.36c5.28,0.4,10.52,0.96,15.68,1.76h0.92c3.314,0.243,6.197-2.246,6.44-5.56    C217.807,21.583,215.318,18.699,212.004,18.456z" fill="#253b54"/><path d="M87.799,50.507c-1.877-2.549-5.411-3.202-8.075-1.491c-4.6,3.16-9.12,6.6-13.44,10.16c-2.552,2.121-2.901,5.908-0.78,8.46    c2.121,2.552,5.908,2.901,8.46,0.78c4-3.36,8.24-6.56,12.56-9.52C89.193,56.932,89.763,53.176,87.799,50.507z" fill="#253b54"/><path d="M129.081,31.602c-0.877-3.195-4.179-5.075-7.375-4.197c-0.281,0.077-0.556,0.175-0.823,0.292     c-5.24,1.92-10.48,4-15.52,6.52c-3.005,1.398-4.307,4.967-2.909,7.971c0.98,2.107,3.09,3.453,5.41,3.465     c0.866-0.017,1.719-0.218,2.499-0.596c4.72-2.24,9.6-4.28,14.52-6.08C128.08,38.099,129.959,34.797,129.081,31.602z" fill="#253b54"/><path d="M201.624,378.676c-0.21-3.314-3.066-5.83-6.38-5.62c-5.24,0.4-10.52,0.52-15.76,0.36c-3.314-0.088-6.072,2.526-6.16,5.84    s2.526,6.072,5.84,6.16h5.08c4,0,8,0,11.76-0.36C199.318,384.847,201.834,381.99,201.624,378.676z" fill="#253b54"/><path d="M358.664,239.676c-3.214-0.817-6.483,1.126-7.3,4.34c-1.28,5.08-2.84,10.12-4.6,15.04c-1.043,3.09,0.573,6.448,3.64,7.56    c3.119,1.119,6.555-0.503,7.674-3.622c0.002-0.006,0.004-0.012,0.006-0.018c1.88-5.28,3.52-10.68,4.92-16    C363.822,243.762,361.878,240.494,358.664,239.676z" fill="#253b54"/><path d="M366.324,170.976c-0.92-5.52-2.08-11.08-3.48-16.48c-0.958-3.172-4.307-4.967-7.479-4.008    c-3.007,0.908-4.804,3.982-4.121,7.048c1.32,5.04,2.4,10.24,3.28,15.4c0.517,2.827,2.966,4.89,5.84,4.92h1    C364.633,177.325,366.853,174.246,366.324,170.976z" fill="#253b54"/><path d="M391.825,102.109c-0.282-0.613-0.668-1.172-1.141-1.652l-10.6-11.04c-1.518-1.516-3.749-2.07-5.8-1.44l-19.12,5.8    l-22.4-23.76l50.28-28c2.93-1.349,4.211-4.818,2.861-7.747c-0.282-0.613-0.668-1.172-1.141-1.652l-14.12-14.12    c-1.539-1.479-3.763-2.001-5.8-1.36l-63.72,19.28l-21.44-22.76c-5.464-6.318-14.359-8.429-22.08-5.24h-0.36    c-5.821,2.396-10.444,7.019-12.84,12.84c-0.604,1.52-1.033,3.103-1.28,4.72l-2.44-0.84c-3.159-1.016-6.544,0.721-7.56,3.88    c-1.016,3.159,0.721,6.544,3.88,7.56c3.08,1,6.16,2.12,9.24,3.28c0.927,1.45,2.014,2.792,3.24,4l22.6,21.44l-6.48,21.4    c-63.378-45.209-151.405-30.48-196.614,32.898S38.51,271,101.888,316.209c63.378,45.209,151.405,30.48,196.614-32.898    c36.052-50.541,34.794-118.718-3.098-167.894l10.24-18.48l23.76,22.4l-5.72,18.92c-0.689,2.079-0.147,4.369,1.4,5.92    c0,0,11.72,11.6,12,12c2.771,1.606,6.32,0.662,7.927-2.109c0.025-0.043,0.05-0.087,0.073-0.131l15.64-28.68l28.24-15.4    C391.894,108.507,393.175,105.038,391.825,102.109z M93.164,110.016c24.115-24.104,56.824-37.631,90.92-37.6    c2.667,0,5.333,0.08,8,0.24c22.68,20.92,16,40,0.8,57.2c-8.97,9.513-18.593,18.388-28.8,26.56c-14.76,12.56-28.52,24.28-33.72,36    c-6.16,13.92-1.64,26.52,23.24,37.52c12.44,5.52,19.2,9.8,21.84,13.04c0.039,0.047,0.077,0.08,0.116,0.109    c-0.082,0.025-0.165,0.052-0.276,0.091c-6.024,2.294-12.436,3.394-18.88,3.24c-30.16,1.28-51.64-18-68.32-32.92    c-12-10.68-21.96-19.56-32.32-19.64C57.476,162.257,70.795,132.401,93.164,110.016z M313.124,201.136h0.04    c-0.018,55.75-35.857,105.176-88.84,122.52c-1.488-9.375,0.246-18.978,4.92-27.24c6.338-10.179,14.47-19.123,24-26.4    c36.92-30.8,39-48,40.6-61.24c1-8.36,1.76-14.6,18.28-23.68C312.787,190.417,313.121,195.774,313.124,201.136z M305.684,157.856    c1.788,5.036,3.257,10.18,4.4,15.4c-25.16,12.8-26.28,21.92-27.8,34.36c-1.36,11.2-3.12,25.84-36.48,53.68    c-10.685,8.175-19.77,18.25-26.8,29.72c-6.129,10.834-8.253,23.478-6,35.72c-69.389,15.862-138.498-27.53-154.36-96.918    c-1.814-7.936-2.872-16.026-3.16-24.162c6.36,0,14.6,7.56,24.72,16.56c18.32,16.36,41.76,37.24,76.68,36    c8.228,0.142,16.397-1.41,24-4.56c3.205-1.417,5.631-4.164,6.64-7.52c0.852-3.743-0.229-7.664-2.88-10.44    c-3.76-4.6-12-10.04-26.16-16.36c-16.92-7.48-20.6-14.76-17.28-22.2c4-9.36,16.88-20,30.56-32c10.66-8.615,20.698-17.971,30.04-28    c16.72-19.04,25.32-39.8,8.32-62.52c18.893,3.862,36.669,11.944,52,23.64l-9.2,30.36c-0.679,2.08-0.139,4.365,1.4,5.92    c0,0,14.92,14.8,15.4,15.08c2.771,1.606,6.32,0.662,7.927-2.109c0.025-0.043,0.049-0.087,0.073-0.131l11.64-21.04    C296.235,136.038,301.727,146.646,305.684,157.856z M359.324,113.176l-5.16,2.56c-1.155,0.573-2.085,1.516-2.64,2.68l-2.56,5.2    l-9.96,18l-2.92-3.2l5.8-19.16c0.676-2.245-0.066-4.675-1.88-6.16l-31.56-29.72c-2.285-2.245-5.957-2.212-8.202,0.073    c-0.054,0.055-0.106,0.11-0.158,0.167c-0.4,0.44-28.8,51.6-28.8,51.6l-6.2-6.2l19.36-63.8c0.694-2.257-0.05-4.709-1.88-6.2    l-25.12-23.64c-2.78-2.355-3.704-6.246-2.28-9.6c1.276-2.906,3.606-5.221,6.52-6.48h0.2c3.313-1.279,7.072-0.315,9.36,2.4    l24,25.36c1.507,1.618,3.803,2.239,5.92,1.6l64-19.32l6.2,6.2l-50.8,27.92c-2.812,1.534-3.848,5.058-2.313,7.869    c0.024,0.044,0.048,0.087,0.073,0.131c0.24,0.44,30.84,33,30.84,33c1.516,1.604,3.811,2.209,5.92,1.56l19.24-5.8l3,3    L359.324,113.176z" fill="#253b54"/><path d="M343.87,281.844c-0.087-0.051-0.176-0.101-0.266-0.147c-2.867-1.499-6.406-0.455-8,2.36c-2.52,4.6-5.28,9.12-8.24,13.44    c-1.911,2.717-1.257,6.469,1.46,8.38c2.717,1.911,6.469,1.257,8.38-1.46c3.12-4.64,6.08-9.48,8.8-14.36    C347.683,287.199,346.727,283.522,343.87,281.844z" fill="#253b54"/><path d="M362.844,194.256c-3.313-0.045-6.036,2.604-6.082,5.917c-0.001,0.081-0.001,0.162,0.002,0.243v0.68    c0,5.24-0.24,10.52-0.72,15.76c-0.3,3.3,2.131,6.219,5.431,6.519c0.003,0,0.006,0.001,0.009,0.001h0.56    c3.165,0.03,5.808-2.404,6.04-5.56c0.52-5.56,0.76-11.2,0.76-16.8v-0.8C368.822,196.918,366.142,194.256,362.844,194.256z" fill="#253b54"/><path d="M152.164,370.416c-5.2-0.88-10.36-2-15.36-3.52c-3.126-1.099-6.551,0.544-7.651,3.67s0.544,6.551,3.67,7.651    c0.229,0.081,0.464,0.147,0.701,0.2c5.36,1.52,10.88,2.84,16.4,4h1.12c3.314,0.309,6.251-2.126,6.56-5.44    C157.913,373.663,155.478,370.726,152.164,370.416z" fill="#253b54"/><path d="M245.001,368.593c-1.085-2.946-4.258-4.558-7.277-3.696v0.16c-4.96,1.64-10.08,3.04-15.16,4    c-3.236,0.729-5.269,3.944-4.54,7.18c0.729,3.236,3.944,5.269,7.18,4.54c5.44-1.24,10.92-2.76,16.24-4.48    C244.554,375.151,246.146,371.702,245.001,368.593z" fill="#253b54"/><path d="M111.004,357.336c-4.76-2.36-9.44-4.92-13.96-7.48c-2.861-1.679-6.541-0.721-8.22,2.14    c-1.679,2.861-0.721,6.541,2.14,8.22c4.84,2.84,9.84,5.48,14.92,8c3.004,1.414,6.586,0.124,8-2.88    C115.298,362.332,114.009,358.75,111.004,357.336z" fill="#253b54"/><path d="M318.379,318.74c-2.404-2.195-6.121-2.073-8.375,0.277h0.04c-3.6,4-7.4,7.52-11.28,11c-2.474,2.209-2.689,6.006-0.48,8.48    c2.209,2.474,6.006,2.689,8.48,0.48c4-3.72,8.24-7.68,12-11.76C320.999,324.769,320.826,320.974,318.379,318.74z" fill="#253b54"/><path d="M285.275,348.668c-1.7-2.844-5.384-3.771-8.229-2.071c-0.096,0.057-0.19,0.117-0.282,0.18v-0.16c-4.4,2.8-9,5.44-13.64,8    c-2.949,1.513-4.113,5.131-2.6,8.08c1.513,2.949,5.131,4.113,8.08,2.6c4.96-2.56,9.88-5.4,14.6-8.4    C286.048,355.196,286.976,351.512,285.275,348.668z" fill="#253b54"/></g><g transform="matrix(1.3376061916351318 0 0 1.3376061916351318 229.88463425636292 136.8899602404432)" id="L1_14"><path d="M53.516,1.143c-0.3-0.182-0.674-0.19-0.983-0.027L36,9.869L19.468,1.116c-0.013-0.007-0.028-0.009-0.041-0.015   c-0.048-0.023-0.097-0.04-0.147-0.055c-0.028-0.008-0.055-0.017-0.083-0.023c-0.055-0.011-0.111-0.015-0.168-0.017   c-0.025-0.001-0.05-0.004-0.076-0.003c-0.054,0.003-0.107,0.013-0.16,0.025c-0.03,0.006-0.06,0.01-0.089,0.019   c-0.007,0.002-0.014,0.002-0.02,0.004l-18,6C0.275,7.187,0,7.569,0,8v43c0,0.321,0.154,0.623,0.416,0.812   C0.588,51.935,0.793,52,1,52c0.106,0,0.213-0.017,0.316-0.052l17.646-5.882l16.657,6.859c0.014,0.006,0.03,0.004,0.044,0.009   C35.773,52.973,35.885,53,36,53c0.09,0,0.179-0.015,0.266-0.039c0.028-0.008,0.054-0.021,0.082-0.031   c0.04-0.015,0.082-0.026,0.12-0.046l17-9C53.795,43.711,54,43.37,54,43V2C54,1.649,53.816,1.324,53.516,1.143z M2,8.721l16-5.333   v26.992c-0.43,0.078-0.854,0.166-1.264,0.274c-0.534,0.142-0.852,0.689-0.71,1.223c0.119,0.448,0.523,0.744,0.966,0.744   c0.084,0,0.171-0.011,0.257-0.033c0.24-0.064,0.502-0.096,0.751-0.148v11.84L2,49.612V8.721z M20,32.16   c0.321-0.025,0.632-0.066,0.961-0.073c0.552-0.012,0.99-0.469,0.979-1.021c-0.012-0.545-0.457-0.979-1-0.979   c-0.007,0-0.015,0-0.022,0c-0.31,0.007-0.615,0.024-0.918,0.045V3.661l15,7.941v21.194c-0.714-0.031-1.44-0.115-2.201-0.262   c-0.544-0.107-1.067,0.249-1.172,0.791s0.25,1.067,0.792,1.172c0.886,0.172,1.746,0.256,2.582,0.289v15.721L20,44.33V32.16z    M52,42.397l-15,7.941v-15.66c0.372-0.169,0.62-0.549,0.587-0.98c-0.029-0.374-0.269-0.674-0.587-0.821V11.602l15-7.941V42.397z" fill="#253b54"/><path d="M11,9c-2.757,0-5,2.243-5,5c0,2.415,1.721,4.434,4,4.899V21c0,0.553,0.448,1,1,1s1-0.447,1-1v-2.101   c2.279-0.465,4-2.484,4-4.899C16,11.243,13.757,9,11,9z M11,17c-1.654,0-3-1.346-3-3s1.346-3,3-3s3,1.346,3,3S12.654,17,11,17z" fill="#253b54"/><path d="M45.07,27.673c0.12,0.047,0.243,0.068,0.364,0.068c0.4,0,0.777-0.241,0.932-0.636c0.47-1.199,0.847-2.553,1.123-4.024   c0.102-0.542-0.256-1.064-0.799-1.167c-0.546-0.09-1.065,0.257-1.167,0.8c-0.252,1.348-0.595,2.58-1.019,3.663   C44.303,26.89,44.556,27.471,45.07,27.673z" fill="#253b54"/><path d="M12.805,32.342c-1.207,0.757-2.295,1.705-3.235,2.82c-0.356,0.422-0.302,1.053,0.12,1.409   c0.188,0.158,0.417,0.235,0.644,0.235c0.285,0,0.567-0.121,0.765-0.355c0.806-0.956,1.737-1.769,2.768-2.414   c0.468-0.294,0.609-0.911,0.316-1.379C13.89,32.19,13.272,32.048,12.805,32.342z" fill="#253b54"/><path d="M8.627,38.276c-0.502-0.23-1.096-0.013-1.327,0.489c-1.026,2.226-1.28,4.023-1.291,4.099   c-0.075,0.547,0.307,1.05,0.854,1.125c0.046,0.007,0.093,0.01,0.138,0.01c0.491,0,0.919-0.362,0.99-0.861   c0.002-0.016,0.231-1.597,1.125-3.534C9.347,39.101,9.128,38.508,8.627,38.276z" fill="#253b54"/><path d="M40.423,33.729c0.153,0,0.309-0.035,0.454-0.109c1.292-0.661,2.431-1.599,3.384-2.786c0.346-0.431,0.277-1.061-0.154-1.406   c-0.43-0.343-1.06-0.276-1.406,0.154c-0.776,0.967-1.696,1.726-2.735,2.257c-0.492,0.252-0.687,0.854-0.435,1.346   C39.709,33.53,40.06,33.729,40.423,33.729z" fill="#253b54"/><path d="M29.17,31.432c-0.441-0.185-0.699-0.313-0.716-0.322c-0.065-0.033-0.134-0.06-0.205-0.078   c-1.083-0.278-2.15-0.498-3.173-0.654c-0.545-0.086-1.056,0.291-1.14,0.837c-0.083,0.546,0.292,1.057,0.838,1.14   c0.926,0.142,1.893,0.34,2.877,0.59c0.134,0.064,0.39,0.185,0.748,0.334c0.126,0.053,0.257,0.077,0.385,0.077   c0.391,0,0.763-0.23,0.923-0.614C29.92,32.23,29.68,31.644,29.17,31.432z" fill="#253b54"/><path d="M46.923,19.931c0.022,0.001,0.043,0.002,0.065,0.002c0.523,0,0.963-0.406,0.997-0.937c0.062-0.961,0.093-1.978,0.093-3.02   c0-0.347-0.003-0.699-0.01-1.058c-0.01-0.553-0.49-0.973-1.018-0.982c-0.552,0.01-0.992,0.466-0.982,1.018   c0.006,0.347,0.01,0.688,0.01,1.022c0,1-0.03,1.973-0.089,2.893C45.954,19.42,46.372,19.895,46.923,19.931z" fill="#253b54"/><path d="M8.293,28.707C8.488,28.902,8.744,29,9,29s0.512-0.098,0.707-0.293L11,27.414l1.293,1.293C12.488,28.902,12.744,29,13,29   s0.512-0.098,0.707-0.293c0.391-0.391,0.391-1.023,0-1.414L12.414,26l1.293-1.293c0.391-0.391,0.391-1.023,0-1.414   s-1.023-0.391-1.414,0L11,24.586l-1.293-1.293c-0.391-0.391-1.023-0.391-1.414,0s-0.391,1.023,0,1.414L9.586,26l-1.293,1.293   C7.902,27.683,7.902,28.316,8.293,28.707z" fill="#253b54"/></g><g transform="matrix(1.278378963470459 0 0 1.278378963470459 291.7189235350056 238.64863109588623)" id="L1_15"><path d="M21.021,28.977C18.75,26.412,15.722,25,12.493,25s-6.257,1.412-8.527,3.977c-4.612,5.211-4.612,13.688,0,18.899   l8.527,9.633l8.527-9.633C25.633,42.665,25.633,34.188,21.021,28.977z M19.523,46.55l-7.029,7.941L5.464,46.55   c-3.966-4.479-3.966-11.768,0-16.247C7.349,28.173,9.846,27,12.493,27s5.145,1.173,7.029,3.303   C23.488,34.782,23.488,42.07,19.523,46.55z" fill="#253b54"/><path d="M48.747,24.507l6.464-7.286c3.478-3.92,3.478-10.296,0-14.216C53.491,1.067,51.195,0,48.746,0   c-2.448,0-4.744,1.067-6.464,3.005c-3.478,3.92-3.478,10.296,0,14.216L48.747,24.507z M43.778,4.333   C45.113,2.828,46.877,2,48.746,2c1.87,0,3.634,0.828,4.969,2.333c2.828,3.187,2.828,8.373,0,11.56l-4.968,5.601l-4.969-5.601   C40.95,12.706,40.95,7.52,43.778,4.333z" fill="#253b54"/><path d="M52.604,54.517c-0.539-0.121-1.074,0.217-1.195,0.756c-0.115,0.51-0.338,0.979-0.663,1.392   c-0.341,0.434-0.267,1.063,0.168,1.404c0.184,0.144,0.401,0.214,0.617,0.214c0.297,0,0.59-0.131,0.787-0.382   c0.504-0.64,0.864-1.396,1.042-2.188C53.481,55.173,53.143,54.638,52.604,54.517z" fill="#253b54"/><path d="M31.995,31c-0.433-0.001-0.854-0.078-1.252-0.23c-0.512-0.195-1.093,0.062-1.291,0.578   c-0.196,0.516,0.063,1.094,0.578,1.291c0.626,0.238,1.285,0.36,1.963,0.361h0.357c0.553,0,1-0.447,1-1s-0.447-1-1-1H31.995z" fill="#253b54"/><path d="M29.621,24.676c0.181,0,0.363-0.049,0.528-0.151c0.443-0.276,0.933-0.445,1.454-0.503c0.549-0.061,0.945-0.555,0.885-1.104   s-0.551-0.941-1.104-0.885c-0.822,0.091-1.594,0.357-2.294,0.794c-0.469,0.292-0.611,0.909-0.319,1.378   C28.961,24.509,29.287,24.676,29.621,24.676z" fill="#253b54"/><path d="M18.064,58h-2c-0.553,0-1,0.447-1,1s0.447,1,1,1h2c0.553,0,1-0.447,1-1S18.616,58,18.064,58z" fill="#253b54"/><path d="M35.993,40c-0.086,0-0.171,0.002-0.256,0.006c-0.552,0.022-0.98,0.488-0.958,1.04c0.021,0.538,0.465,0.959,0.998,0.959   c0.014,0,0.028,0,0.042-0.001L37.778,42c0.553,0,1-0.447,1-1s-0.447-1-1-1H35.993z" fill="#253b54"/><path d="M35.493,24h2c0.553,0,1-0.447,1-1s-0.447-1-1-1h-2c-0.553,0-1,0.447-1,1S34.94,24,35.493,24z" fill="#253b54"/><path d="M47.778,40c-0.553,0-1,0.447-1,1s0.447,1,1,1h2c0.553,0,1-0.447,1-1s-0.447-1-1-1H47.778z" fill="#253b54"/><path d="M51.351,32c0-0.553-0.447-1-1-1h-2c-0.553,0-1,0.447-1,1s0.447,1,1,1h2C50.903,33,51.351,32.553,51.351,32z" fill="#253b54"/><path d="M41.778,42h2c0.553,0,1-0.447,1-1s-0.447-1-1-1h-2c-0.553,0-1,0.447-1,1S41.226,42,41.778,42z" fill="#253b54"/><path d="M43.493,24c0.553,0,1-0.447,1-1s-0.447-1-1-1h-2c-0.553,0-1,0.447-1,1s0.447,1,1,1H43.493z" fill="#253b54"/><path d="M36.351,31c-0.553,0-1,0.447-1,1s0.447,1,1,1h2c0.553,0,1-0.447,1-1s-0.447-1-1-1H36.351z" fill="#253b54"/><path d="M45.351,32c0-0.553-0.447-1-1-1h-2c-0.553,0-1,0.447-1,1s0.447,1,1,1h2C44.903,33,45.351,32.553,45.351,32z" fill="#253b54"/><path d="M59.426,35.632c-0.088-0.546-0.603-0.919-1.146-0.829c-0.546,0.087-0.917,0.601-0.829,1.146   c0.028,0.178,0.044,0.359,0.042,0.552c0,0.336-0.048,0.668-0.142,0.988c-0.155,0.53,0.148,1.086,0.679,1.241   c0.094,0.027,0.188,0.04,0.281,0.04c0.433,0,0.832-0.282,0.96-0.719c0.147-0.503,0.222-1.024,0.222-1.543   C59.495,36.22,59.473,35.925,59.426,35.632z" fill="#253b54"/><path d="M42.064,58h-2c-0.553,0-1,0.447-1,1s0.447,1,1,1h2c0.553,0,1-0.447,1-1S42.616,58,42.064,58z" fill="#253b54"/><path d="M36.064,58h-2c-0.553,0-1,0.447-1,1s0.447,1,1,1h2c0.553,0,1-0.447,1-1S36.616,58,36.064,58z" fill="#253b54"/><path d="M47.065,50c0-0.553-0.447-1-1-1h-2c-0.553,0-1,0.447-1,1s0.447,1,1,1h2C46.617,51,47.065,50.553,47.065,50z" fill="#253b54"/><path d="M41.065,50c0-0.553-0.447-1-1-1h-2c-0.553,0-1,0.447-1,1s0.447,1,1,1h2C40.617,51,41.065,50.553,41.065,50z" fill="#253b54"/><path d="M47.993,58h-1.93c-0.553,0-1,0.447-1,1s0.447,1,1,1l1.971-0.001l0.029-1v1c0.553,0,0.965-0.447,0.965-1   C49.028,58.447,48.546,58,47.993,58z" fill="#253b54"/><path d="M51.531,52.719c0.216,0,0.435-0.07,0.617-0.214c0.435-0.342,0.509-0.971,0.168-1.404c-0.503-0.639-1.152-1.167-1.879-1.528   c-0.497-0.247-1.095-0.044-1.341,0.45c-0.246,0.495-0.044,1.095,0.45,1.341c0.463,0.229,0.877,0.566,1.197,0.974   C50.941,52.588,51.234,52.719,51.531,52.719z" fill="#253b54"/><path d="M55.345,39.729C54.916,39.909,54.462,40,53.993,40h-0.215c-0.553,0-1,0.447-1,1s0.447,1,1,1h0.215   c0.736,0,1.451-0.144,2.125-0.427c0.51-0.214,0.749-0.8,0.535-1.309C56.44,39.755,55.85,39.515,55.345,39.729z" fill="#253b54"/><path d="M28.029,29.855c0.524-0.173,0.81-0.738,0.638-1.263c-0.115-0.351-0.174-0.718-0.174-1.088   c0.001-0.151,0.01-0.302,0.028-0.449c0.069-0.548-0.319-1.049-0.867-1.117c-0.565-0.063-1.049,0.321-1.117,0.867   c-0.028,0.226-0.043,0.456-0.044,0.694c0,0.588,0.092,1.166,0.273,1.718c0.139,0.421,0.53,0.688,0.95,0.688   C27.82,29.905,27.926,29.89,28.029,29.855z" fill="#253b54"/><path d="M24.064,58h-2c-0.553,0-1,0.447-1,1s0.447,1,1,1h2c0.553,0,1-0.447,1-1S24.616,58,24.064,58z" fill="#253b54"/><path d="M34.122,50.594c0.38,0,0.742-0.217,0.91-0.584c0.229-0.503,0.009-1.096-0.493-1.325c-0.469-0.215-0.894-0.538-1.228-0.936   c-0.356-0.423-0.986-0.478-1.409-0.122c-0.423,0.355-0.478,0.986-0.122,1.409c0.524,0.623,1.19,1.131,1.927,1.467   C33.842,50.564,33.983,50.594,34.122,50.594z" fill="#253b54"/><path d="M56.746,31.738c-0.714-0.414-1.494-0.657-2.317-0.722c-0.549-0.04-1.032,0.367-1.075,0.919   c-0.043,0.551,0.368,1.032,0.919,1.075c0.522,0.041,1.017,0.195,1.47,0.458c0.158,0.092,0.331,0.135,0.501,0.135   c0.345,0,0.681-0.179,0.866-0.498C57.387,32.628,57.224,32.016,56.746,31.738z" fill="#253b54"/><path d="M30.064,58h-2c-0.553,0-1,0.447-1,1s0.447,1,1,1h2c0.553,0,1-0.447,1-1S30.616,58,30.064,58z" fill="#253b54"/><path d="M32.555,44.839c0.099-0.514,0.307-0.989,0.619-1.413c0.327-0.444,0.232-1.07-0.213-1.398   c-0.445-0.326-1.07-0.232-1.398,0.213c-0.489,0.666-0.817,1.413-0.973,2.222c-0.104,0.542,0.251,1.066,0.794,1.171   c0.063,0.012,0.127,0.018,0.189,0.018C32.043,45.65,32.462,45.317,32.555,44.839z" fill="#253b54"/><path d="M48.993,15c3.032,0,5.5-2.468,5.5-5.5S52.025,4,48.993,4s-5.5,2.468-5.5,5.5S45.961,15,48.993,15z M48.993,6   c1.93,0,3.5,1.57,3.5,3.5s-1.57,3.5-3.5,3.5s-3.5-1.57-3.5-3.5S47.064,6,48.993,6z" fill="#253b54"/><path d="M12.493,31c-3.309,0-6,2.691-6,6s2.691,6,6,6s6-2.691,6-6S15.802,31,12.493,31z M12.493,41c-2.206,0-4-1.794-4-4   s1.794-4,4-4s4,1.794,4,4S14.699,41,12.493,41z" fill="#253b54"/></g><g transform="matrix(0.1490912288427353 0 0 0.1490912288427353 207.83264541625977 8.832645416259766)" id="L1_16"><path d="M477.858,8.533H34.142C15.317,8.533,0,23.851,0,42.675v281.591c0,4.71,3.823,8.533,8.533,8.533h494.933    c4.71,0,8.533-3.823,8.533-8.533V42.675C512,23.851,496.683,8.533,477.858,8.533z M494.933,315.733H17.067V42.675    c0-9.421,7.663-17.075,17.075-17.075h443.716c9.412,0,17.075,7.654,17.075,17.075V315.733z" fill="#253b54"/><path d="M503.467,315.733H8.533c-4.71,0-8.533,3.823-8.533,8.533v42.658c0,18.825,15.317,34.142,34.142,34.142h443.716    c18.825,0,34.142-15.317,34.142-34.142v-42.658C512,319.556,508.177,315.733,503.467,315.733z M494.933,366.925    c0,9.421-7.663,17.075-17.075,17.075H34.142c-9.412,0-17.075-7.654-17.075-17.075V332.8h477.867V366.925z" fill="#253b54"/><path d="M281.6,349.867h-51.2c-4.71,0-8.533,3.823-8.533,8.533s3.823,8.533,8.533,8.533h51.2c4.71,0,8.533-3.823,8.533-8.533    S286.31,349.867,281.6,349.867z" fill="#253b54"/><path d="M469.333,42.667H42.667c-4.71,0-8.533,3.823-8.533,8.533v273.067c0,4.71,3.823,8.533,8.533,8.533h426.667    c4.71,0,8.533-3.823,8.533-8.533V51.2C477.867,46.49,474.044,42.667,469.333,42.667z M460.8,315.733H51.2v-256h409.6V315.733z" fill="#253b54"/><path d="M366.933,452.267H145.067c-14.114,0-25.6,11.486-25.6,25.6s11.486,25.6,25.6,25.6h221.867c14.114,0,25.6-11.486,25.6-25.6    S381.047,452.267,366.933,452.267z M366.933,486.4H145.067c-4.71,0-8.533-3.831-8.533-8.533s3.823-8.533,8.533-8.533h221.867    c4.71,0,8.533,3.831,8.533,8.533S371.644,486.4,366.933,486.4z" fill="#253b54"/><path d="M349.867,452.267c-28.314,0-42.667-20.096-42.667-59.733c0-4.71-3.823-8.533-8.533-8.533h-85.333    c-4.71,0-8.533,3.823-8.533,8.533c0,39.637-14.353,59.733-42.667,59.733c-4.71,0-8.533,3.823-8.533,8.533    c0,4.71,3.823,8.533,8.533,8.533h187.733c4.71,0,8.533-3.823,8.533-8.533C358.4,456.09,354.577,452.267,349.867,452.267z     M203.699,452.267c10.505-11.639,16.691-28.971,17.937-51.2h68.736c1.237,22.229,7.424,39.561,17.937,51.2H203.699z" fill="#253b54"/><path d="M407.757,259.959l-20.599-20.599l11.46-11.46c2.125-2.125,2.978-5.214,2.244-8.124c-0.734-2.91-2.944-5.214-5.82-6.084    l-85.333-25.6c-3.012-0.905-6.263-0.077-8.482,2.142c-2.227,2.219-3.046,5.478-2.142,8.482l25.6,85.333    c0.862,2.884,3.174,5.094,6.084,5.828c2.901,0.717,5.999-0.12,8.124-2.244l12.066-12.075l20.599,20.608    c1.596,1.604,3.772,2.5,6.033,2.5s4.437-0.896,6.033-2.5l24.132-24.141C411.093,268.689,411.093,263.296,407.757,259.959z     M377.591,278.067l-18.756-18.765c-2.176-2.176-5.026-3.26-7.876-3.26c-2.859,0-5.709,1.092-7.876,3.251l-6.161,6.161    l-16.939-56.465l56.465,16.939l-6.605,6.605c-1.818,1.826-2.816,4.25-2.816,6.827c0,2.586,1.007,5.026,2.833,6.835l19.797,19.797    L377.591,278.067z" fill="#253b54"/><path d="M358.4,76.8H119.467c-4.71,0-8.533,3.823-8.533,8.533V128c0,4.71,3.823,8.533,8.533,8.533H358.4    c4.71,0,8.533-3.823,8.533-8.533V85.333C366.933,80.623,363.11,76.8,358.4,76.8z M349.867,119.467H128v-25.6h221.867V119.467z" fill="#253b54"/><path d="M221.867,170.667H153.6c-4.71,0-8.533,3.823-8.533,8.533v34.133c0,4.71,3.823,8.533,8.533,8.533h68.267    c4.71,0,8.533-3.823,8.533-8.533V179.2C230.4,174.49,226.577,170.667,221.867,170.667z M213.333,204.8h-51.2v-17.067h51.2V204.8z" fill="#253b54"/><path d="M358.4,76.8H119.467c-4.71,0-8.533,3.823-8.533,8.533v162.133c0,4.71,3.823,8.533,8.533,8.533h203.145    c2.705,0,5.239-1.271,6.844-3.439c1.613-2.167,2.108-4.966,1.331-7.552l-10.803-36.019l35.968,10.795    c2.586,0.777,5.385,0.282,7.543-1.331c2.167-1.604,3.439-4.147,3.439-6.844V85.333C366.933,80.623,363.11,76.8,358.4,76.8z     M349.867,200.141L309.7,188.092c-3.012-0.905-6.263-0.077-8.482,2.142c-2.227,2.227-3.046,5.478-2.142,8.491l12.066,40.209H128    V93.867h221.867V200.141z" fill="#253b54"/></g><path d="M336.559,68.611L231.016,174.165l105.543,105.549c15.699,15.705,15.699,41.145,0,56.85   c-7.844,7.844-18.128,11.769-28.407,11.769c-10.296,0-20.581-3.919-28.419-11.769L174.167,231.003L68.609,336.563   c-7.843,7.844-18.128,11.769-28.416,11.769c-10.285,0-20.563-3.919-28.413-11.769c-15.699-15.698-15.699-41.139,0-56.85   l105.54-105.549L11.774,68.611c-15.699-15.699-15.699-41.145,0-56.844c15.696-15.687,41.127-15.687,56.829,0l105.563,105.554   L279.721,11.767c15.705-15.687,41.139-15.687,56.832,0C352.258,27.466,352.258,52.912,336.559,68.611z" transform="matrix(0.040638319300458074 0.020319160408612175 -0.020319160408612175 0.040638319300458074 -1.5643002494589426 71.36463192834402)" id="L1_17" fill="#253b54"/><path d="M45.9,100.725c17.85-17.85,35.7-35.7,43.35-30.6c12.75,5.1,0,25.5-7.65,38.25c-7.65,10.2-73.95,99.45-73.95,160.65    c0,33.15,12.75,58.65,33.15,76.5c20.4,15.3,43.35,17.85,66.3,12.75c28.05-7.65,48.45-35.7,79.05-71.4    c30.6-38.25,71.401-86.7,104.549-86.7c40.801,0,40.801,25.5,45.9,45.9c-96.9,15.3-137.7,94.351-137.7,137.7s35.7,79.05,81.6,79.05    c40.801,0,109.65-33.149,119.85-155.55h63.75v-63.75h-63.75c-5.1-40.8-28.049-107.1-102-107.1c-56.1,0-107.1,48.45-124.95,71.4    c-15.3,17.85-53.55,63.75-58.65,68.851c-7.65,7.649-17.85,20.399-28.05,20.399c-10.2,0-17.85-20.399-10.2-48.45    c10.2-28.05,35.7-73.95,48.45-89.25c17.85-30.6,30.6-51,30.6-84.15c0-56.1-40.8-73.95-63.75-73.95c-33.15,0-61.2,25.5-68.85,33.15    S7.65,49.725,0,57.375L45.9,100.725z M283.051,399.075c-7.65,0-17.852-7.649-17.852-17.85c0-15.3,17.852-56.101,73.951-71.4    C328.949,378.675,300.9,399.075,283.051,399.075z" transform="matrix(0.04583897006458692 0.009167794208214439 -0.009167794208214439 0.04583897006458692 208.48628324814769 280.23613945578563)" id="L1_19" fill="#253b54"/></defs><g fi:class="KUsePattern"><pattern id="pattern_L1_3" width="350" height="350" patternUnits="userSpaceOnUse"><use xlink:href="#L1_3" x="-350" y="-350"/><use xlink:href="#L1_3" x="0" y="-350"/><use xlink:href="#L1_3" x="350" y="-350"/><use xlink:href="#L1_3" x="-350" y="0"/><use xlink:href="#L1_3" x="0" y="0"/><use xlink:href="#L1_3" x="350" y="0"/><use xlink:href="#L1_3" x="-350" y="350"/><use xlink:href="#L1_3" x="0" y="350"/><use xlink:href="#L1_3" x="350" y="350"/></pattern><rect x="0" y="0" width="100%" height="100%" fill="url(#pattern_L1_3)"/></g><g fi:class="KUsePattern"><pattern id="pattern_L1_10" width="350" height="350" patternUnits="userSpaceOnUse"><use xlink:href="#L1_10" x="-350" y="-350"/><use xlink:href="#L1_10" x="0" y="-350"/><use xlink:href="#L1_10" x="350" y="-350"/><use xlink:href="#L1_10" x="-350" y="0"/><use xlink:href="#L1_10" x="0" y="0"/><use xlink:href="#L1_10" x="350" y="0"/><use xlink:href="#L1_10" x="-350" y="350"/><use xlink:href="#L1_10" x="0" y="350"/><use xlink:href="#L1_10" x="350" y="350"/></pattern><rect x="0" y="0" width="100%" height="100%" fill="url(#pattern_L1_10)"/></g><g fi:class="KUsePattern"><pattern id="pattern_L1_13" width="350" height="350" patternUnits="userSpaceOnUse"><use xlink:href="#L1_13" x="-350" y="-350"/><use xlink:href="#L1_13" x="0" y="-350"/><use xlink:href="#L1_13" x="350" y="-350"/><use xlink:href="#L1_13" x="-350" y="0"/><use xlink:href="#L1_13" x="0" y="0"/><use xlink:href="#L1_13" x="350" y="0"/><use xlink:href="#L1_13" x="-350" y="350"/><use xlink:href="#L1_13" x="0" y="350"/><use xlink:href="#L1_13" x="350" y="350"/></pattern><rect x="0" y="0" width="100%" height="100%" fill="url(#pattern_L1_13)"/></g><g fi:class="KUsePattern"><pattern id="pattern_L1_14" width="350" height="350" patternUnits="userSpaceOnUse"><use xlink:href="#L1_14" x="-350" y="-350"/><use xlink:href="#L1_14" x="0" y="-350"/><use xlink:href="#L1_14" x="350" y="-350"/><use xlink:href="#L1_14" x="-350" y="0"/><use xlink:href="#L1_14" x="0" y="0"/><use xlink:href="#L1_14" x="350" y="0"/><use xlink:href="#L1_14" x="-350" y="350"/><use xlink:href="#L1_14" x="0" y="350"/><use xlink:href="#L1_14" x="350" y="350"/></pattern><rect x="0" y="0" width="100%" height="100%" fill="url(#pattern_L1_14)"/></g><g fi:class="KUsePattern"><pattern id="pattern_L1_16" width="350" height="350" patternUnits="userSpaceOnUse"><use xlink:href="#L1_16" x="-350" y="-350"/><use xlink:href="#L1_16" x="0" y="-350"/><use xlink:href="#L1_16" x="350" y="-350"/><use xlink:href="#L1_16" x="-350" y="0"/><use xlink:href="#L1_16" x="0" y="0"/><use xlink:href="#L1_16" x="350" y="0"/><use xlink:href="#L1_16" x="-350" y="350"/><use xlink:href="#L1_16" x="0" y="350"/><use xlink:href="#L1_16" x="350" y="350"/></pattern><rect x="0" y="0" width="100%" height="100%" fill="url(#pattern_L1_16)"/></g><g fi:class="KUsePattern"><pattern id="pattern_L1_15" width="350" height="350" patternUnits="userSpaceOnUse"><use xlink:href="#L1_15" x="-350" y="-350"/><use xlink:href="#L1_15" x="0" y="-350"/><use xlink:href="#L1_15" x="350" y="-350"/><use xlink:href="#L1_15" x="-350" y="0"/><use xlink:href="#L1_15" x="0" y="0"/><use xlink:href="#L1_15" x="350" y="0"/><use xlink:href="#L1_15" x="-350" y="350"/><use xlink:href="#L1_15" x="0" y="350"/><use xlink:href="#L1_15" x="350" y="350"/></pattern><rect x="0" y="0" width="100%" height="100%" fill="url(#pattern_L1_15)"/></g><g fi:class="KUsePattern"><pattern id="pattern_L1_17" width="350" height="350" patternUnits="userSpaceOnUse"><use xlink:href="#L1_17" x="-350" y="-350"/><use xlink:href="#L1_17" x="0" y="-350"/><use xlink:href="#L1_17" x="350" y="-350"/><use xlink:href="#L1_17" x="-350" y="0"/><use xlink:href="#L1_17" x="0" y="0"/><use xlink:href="#L1_17" x="350" y="0"/><use xlink:href="#L1_17" x="-350" y="350"/><use xlink:href="#L1_17" x="0" y="350"/><use xlink:href="#L1_17" x="350" y="350"/></pattern><rect x="0" y="0" width="100%" height="100%" fill="url(#pattern_L1_17)"/></g><g fi:class="KUsePattern"><pattern id="pattern_L1_19" width="350" height="350" patternUnits="userSpaceOnUse"><use xlink:href="#L1_19" x="-350" y="-350"/><use xlink:href="#L1_19" x="0" y="-350"/><use xlink:href="#L1_19" x="350" y="-350"/><use xlink:href="#L1_19" x="-350" y="0"/><use xlink:href="#L1_19" x="0" y="0"/><use xlink:href="#L1_19" x="350" y="0"/><use xlink:href="#L1_19" x="-350" y="350"/><use xlink:href="#L1_19" x="0" y="350"/><use xlink:href="#L1_19" x="350" y="350"/></pattern><rect x="0" y="0" width="100%" height="100%" fill="url(#pattern_L1_19)"/></g></svg>